# xmcd
#
# Track frame offsets: 
#        150
#        13405
#        29712
#        41669
#        56694
#        73526
#        89278
#        104018
#        118848
#        135275
#        154155
#        166262
#        184294
#        199664
#
# Disc length: 2874 seconds
#
# Revision: 0
# Processed by: cddbd v1.5.2PL0 Copyright (c) Steve Scherf et al.
# Submitted via: ExactAudioCopy v1.0b4
#
DISCID=c90b380e
DTITLE=Mud Morganfield and Kim Wilson - For Pops (A Tribute To Muddy Wat
DTITLE=ers)
DYEAR=2014
DGENRE=Contemporary Blues
TTITLE0=Gone to Main Street
TTITLE1=Just to Be with You 
TTITLE2=I Don't Know Why 
TTITLE3=I Want You to Love Me
TTITLE4=Still a Fool
TTITLE5=My Dog Can't Bark
TTITLE6=She's Got It
TTITLE7=I Love the Life I Live, I Live the Life I Love
TTITLE8=Blow Wind Blow
TTITLE9=Nineteen Years Old
TTITLE10=I Want to Be Loved
TTITLE11=Trouble No More
TTITLE12=I Just Want to Make Love to You
TTITLE13=She Moves Me
EXTD=
EXTT0=
EXTT1=
EXTT2=
EXTT3=
EXTT4=
EXTT5=
EXTT6=
EXTT7=
EXTT8=
EXTT9=
EXTT10=
EXTT11=
EXTT12=
EXTT13=
PLAYORDER=
